{
  "accessors": [
    {
      "bufferView": 2,
      "componentType": 5126,
      "count": 30084,
      "max": [
        31.44623565673828,
        17.185176849365234,
        3.415816307067871
      ],
      "min": [
        -31.44623565673828,
        -17.185176849365234,
        -3.415816307067871
      ],
      "type": "VEC3"
    },
    {
      "bufferView": 2,
      "byteOffset": 361008,
      "componentType": 5126,
      "count": 30084,
      "max": [
        1.0,
        1.0,
        1.0
      ],
      "min": [
        -1.0,
        -1.0,
        -1.0
      ],
      "type": "VEC3"
    },
    {
      "bufferView": 3,
      "componentType": 5126,
      "count": 30084,
      "max": [
        1.0,
        1.0,
        1.0,
        1.0
      ],
      "min": [
        -1.0,
        -1.0,
        -1.0,
        -1.0
      ],
      "type": "VEC4"
    },
    {
      "bufferView": 1,
      "componentType": 5126,
      "count": 30084,
      "max": [
        0.9566633701324463,
        0.999673068523407
      ],
      "min": [
        0.0003269519947934896,
        0.0009756088256835938
      ],
      "type": "VEC2"
    },
    {
      "bufferView": 0,
      "componentType": 5125,
      "count": 109059,
      "type": "SCALAR"
    },
    {
      "bufferView": 2,
      "byteOffset": 722016,
      "componentType": 5126,
      "count": 120,
      "max": [
        21.753002166748047,
        16.027204513549805,
        -0.18284931778907776
      ],
      "min": [
        -21.942703247070313,
        -16.14301109313965,
        -1.5136079788208008
      ],
      "type": "VEC3"
    },
    {
      "bufferView": 2,
      "byteOffset": 723456,
      "componentType": 5126,
      "count": 120,
      "max": [
        1.0,
        1.0,
        1.0
      ],
      "min": [
        -1.0,
        -1.0,
        -1.0
      ],
      "type": "VEC3"
    },
    {
      "bufferView": 1,
      "byteOffset": 240672,
      "componentType": 5126,
      "count": 120,
      "max": [
        0.9527150392532349,
        0.999673068523407
      ],
      "min": [
        0.0003269519947934896,
        0.0863800048828125
      ],
      "type": "VEC2"
    },
    {
      "bufferView": 0,
      "byteOffset": 436236,
      "componentType": 5125,
      "count": 276,
      "type": "SCALAR"
    },
    {
      "bufferView": 2,
      "byteOffset": 724896,
      "componentType": 5126,
      "count": 1994,
      "max": [
        1.9308106899261475,
        0.6694321632385254,
        1.9785244464874268
      ],
      "min": [
        -1.9308106899261475,
        -0.6694321632385254,
        -1.9785244464874268
      ],
      "type": "VEC3"
    },
    {
      "bufferView": 2,
      "byteOffset": 748824,
      "componentType": 5126,
      "count": 1994,
      "max": [
        0.9997038245201111,
        1.0,
        1.0
      ],
      "min": [
        -1.0,
        -1.0,
        -1.0
      ],
      "type": "VEC3"
    },
    {
      "bufferView": 3,
      "byteOffset": 481344,
      "componentType": 5126,
      "count": 1994,
      "max": [
        0.9999387860298157,
        1.0,
        1.0,
        1.0
      ],
      "min": [
        -0.9999188184738159,
        -0.7610929012298584,
        -0.99881511926651,
        1.0
      ],
      "type": "VEC4"
    },
    {
      "bufferView": 1,
      "byteOffset": 241632,
      "componentType": 5126,
      "count": 1994,
      "max": [
        0.9354338645935059,
        0.944918692111969
      ],
      "min": [
        0.10945795476436615,
        0.003319859504699707
      ],
      "type": "VEC2"
    },
    {
      "bufferView": 0,
      "byteOffset": 437340,
      "componentType": 5125,
      "count": 5292,
      "type": "SCALAR"
    },
    {
      "bufferView": 4,
      "componentType": 5126,
      "count": 91,
      "max": [
        3.0
      ],
      "min": [
        0.0
      ],
      "type": "SCALAR"
    },
    {
      "bufferView": 5,
      "componentType": 5126,
      "count": 91,
      "max": [
        -0.0,
        0.18051913380622864,
        0.0,
        0.9999996423721313
      ],
      "min": [
        -0.0,
        -0.7071067690849304,
        0.0,
        0.7071067690849304
      ],
      "type": "VEC4"
    }
  ],
  "animations": [
    {
      "channels": [
        {
          "sampler": 0,
          "target": {
            "node": 8,
            "path": "rotation"
          }
        }
      ],
      "name": "01",
      "samplers": [
        {
          "input": 14,
          "interpolation": "LINEAR",
          "output": 15
        }
      ]
    }
  ],
  "asset": {
    "extras": {
      "author": "adventurer (https://sketchfab.com/ahmagh2e)",
      "license": "CC-BY-4.0 (http://creativecommons.org/licenses/by/4.0/)",
      "source": "https://sketchfab.com/3d-models/gun-satellite-panel-computer-cc3ca5adf3704c198800dd8dc7fafbbf",
      "title": "gun satellite panel Computer"
    },
    "generator": "Sketchfab-15.97.0",
    "version": "2.0"
  },
  "bufferViews": [
    {
      "buffer": 0,
      "byteLength": 458508,
      "name": "floatBufferViews",
      "target": 34963
    },
    {
      "buffer": 0,
      "byteLength": 257584,
      "byteOffset": 458508,
      "byteStride": 8,
      "name": "floatBufferViews",
      "target": 34962
    },
    {
      "buffer": 0,
      "byteLength": 772752,
      "byteOffset": 716092,
      "byteStride": 12,
      "name": "floatBufferViews",
      "target": 34962
    },
    {
      "buffer": 0,
      "byteLength": 513248,
      "byteOffset": 1488844,
      "byteStride": 16,
      "name": "floatBufferViews",
      "target": 34962
    },
    {
      "buffer": 0,
      "byteLength": 364,
      "byteOffset": 2002092,
      "name": "floatBufferViews"
    },
    {
      "buffer": 0,
      "byteLength": 1456,
      "byteOffset": 2002456,
      "byteStride": 16,
      "name": "floatBufferViews"
    }
  ],
  "buffers": [
    {
      "byteLength": 2003912,
      "uri": "scene.bin"
    }
  ],
  "extensionsUsed": [
    "KHR_materials_emissive_strength",
    "KHR_materials_transmission"
  ],
  "images": [
    {
      "uri": "textures/base_baseColor.png"
    },
    {
      "uri": "textures/base_metallicRoughness.png"
    },
    {
      "uri": "textures/base_emissive.png"
    },
    {
      "uri": "textures/base_normal.png"
    },
    {
      "uri": "textures/glass_baseColor.png"
    },
    {
      "uri": "textures/glass_metallicRoughness.png"
    },
    {
      "uri": "textures/glass_emissive.png"
    },
    {
      "uri": "textures/glass_transmission.png"
    }
  ],
  "materials": [
    {
      "doubleSided": true,
      "emissiveFactor": [
        1.0,
        1.0,
        1.0
      ],
      "emissiveTexture": {
        "index": 2
      },
      "extensions": {
        "KHR_materials_emissive_strength": {
          "emissiveStrength": 4.190488961490168
        }
      },
      "name": "base",
      "normalTexture": {
        "index": 3
      },
      "pbrMetallicRoughness": {
        "baseColorTexture": {
          "index": 0
        },
        "metallicRoughnessTexture": {
          "index": 1
        }
      }
    },
    {
      "alphaMode": "BLEND",
      "doubleSided": true,
      "emissiveFactor": [
        1.0,
        1.0,
        1.0
      ],
      "emissiveTexture": {
        "index": 6
      },
      "extensions": {
        "KHR_materials_emissive_strength": {
          "emissiveStrength": 2.1790542599748877
        },
        "KHR_materials_transmission": {
          "transmissionFactor": 1.0,
          "transmissionTexture": {
            "index": 7
          }
        }
      },
      "name": "glass",
      "pbrMetallicRoughness": {
        "baseColorTexture": {
          "index": 4
        },
        "metallicFactor": 0.0,
        "metallicRoughnessTexture": {
          "index": 5
        }
      }
    }
  ],
  "meshes": [
    {
      "name": "base_base_0",
      "primitives": [
        {
          "attributes": {
            "NORMAL": 1,
            "POSITION": 0,
            "TANGENT": 2,
            "TEXCOORD_0": 3
          },
          "indices": 4,
          "material": 0,
          "mode": 4
        }
      ]
    },
    {
      "name": "glass_glass_0",
      "primitives": [
        {
          "attributes": {
            "NORMAL": 6,
            "POSITION": 5,
            "TEXCOORD_0": 7
          },
          "indices": 8,
          "material": 1,
          "mode": 4
        }
      ]
    },
    {
      "name": "01_base_0",
      "primitives": [
        {
          "attributes": {
            "NORMAL": 10,
            "POSITION": 9,
            "TANGENT": 11,
            "TEXCOORD_0": 12
          },
          "indices": 13,
          "material": 0,
          "mode": 4
        }
      ]
    }
  ],
  "nodes": [
    {
      "children": [
        1
      ],
      "matrix": [
        1.0,
        0.0,
        0.0,
        0.0,
        0.0,
        2.220446049250313e-16,
        -1.0,
        0.0,
        0.0,
        1.0,
        2.220446049250313e-16,
        0.0,
        0.0,
        0.0,
        0.0,
        1.0
      ],
      "name": "Sketchfab_model"
    },
    {
      "children": [
        2
      ],
      "matrix": [
        0.009999999776482582,
        0.0,
        0.0,
        0.0,
        0.0,
        0.0,
        0.009999999776482582,
        0.0,
        0.0,
        -0.009999999776482582,
        0.0,
        0.0,
        0.0,
        0.0,
        0.0,
        1.0
      ],
      "name": "6fe1aa7525d041ecad9d9959d5714c19.fbx"
    },
    {
      "children": [
        3
      ],
      "name": "Object_2"
    },
    {
      "children": [
        4,
        6,
        8
      ],
      "name": "RootNode"
    },
    {
      "children": [
        5
      ],
      "name": "base",
      "rotation": [
        -0.0,
        -0.7071068286895752,
        0.0,
        0.7071068286895752
      ],
      "translation": [
        0.0,
        17.185176849365234,
        0.0
      ]
    },
    {
      "mesh": 0,
      "name": "base_base_0"
    },
    {
      "children": [
        7
      ],
      "name": "glass",
      "rotation": [
        -0.0,
        -0.7071068286895752,
        0.0,
        0.7071068286895752
      ],
      "translation": [
        0.0,
        17.185176849365234,
        0.0
      ]
    },
    {
      "mesh": 1,
      "name": "glass_glass_0"
    },
    {
      "children": [
        9
      ],
      "name": "01",
      "rotation": [
        -0.0,
        -0.7071068286895752,
        0.0,
        0.7071068286895752
      ],
      "translation": [
        -0.5855921506881714,
        1.5048236846923828,
        -26.46373176574707
      ]
    },
    {
      "mesh": 2,
      "name": "01_base_0"
    }
  ],
  "samplers": [
    {
      "magFilter": 9729,
      "minFilter": 9987,
      "wrapS": 10497,
      "wrapT": 10497
    }
  ],
  "scene": 0,
  "scenes": [
    {
      "name": "Sketchfab_Scene",
      "nodes": [
        0
      ]
    }
  ],
  "textures": [
    {
      "sampler": 0,
      "source": 0
    },
    {
      "sampler": 0,
      "source": 1
    },
    {
      "sampler": 0,
      "source": 2
    },
    {
      "sampler": 0,
      "source": 3
    },
    {
      "sampler": 0,
      "source": 4
    },
    {
      "sampler": 0,
      "source": 5
    },
    {
      "sampler": 0,
      "source": 6
    },
    {
      "sampler": 0,
      "source": 7
    }
  ]
}
