<svg xmlns="http://www.w3.org/2000/svg" version="1.1" xmlns:xlink="http://www.w3.org/1999/xlink" xmlns:svgjs="http://svgjs.dev/svgjs" width="1000" height="750" viewBox="0 0 1000 750"><rect width="1000" height="750" fill="#ffffff"></rect><g transform="matrix(0.834,0,0,0.834,82.49454545454546,302.26533704347827)"><svg viewBox="0 0 396 69" data-background-color="#ffffff" preserveAspectRatio="xMidYMid meet" height="174" width="1000" xmlns="http://www.w3.org/2000/svg" xmlns:xlink="http://www.w3.org/1999/xlink"><g id="tight-bounds" transform="matrix(1,0,0,1,0.2400000000000091,0.08400000000000318)"><svg viewBox="0 0 395.52 68.832" height="68.832" width="395.52"><g><svg viewBox="0 0 395.52 68.832" height="68.832" width="395.52"><g><svg viewBox="0 0 395.52 68.832" height="68.832" width="395.52"><g><svg viewBox="0 0 395.52 68.832" height="68.832" width="395.52"><g><svg viewBox="0 0 395.52 68.832" height="68.832" width="395.52"><g id="textblocktransform"><svg viewBox="0 0 395.52 68.832" height="68.832" width="395.52" id="textblock"><g><svg viewBox="0 0 395.52 68.832" height="68.832" width="395.52"><g transform="matrix(1,0,0,1,0,0)"><svg width="395.52" viewBox="1.25 -35.2 205.99 35.85" height="68.832" data-palette-color="#c10000"><path d="M26.8-34.5L28.75 0 23.4 0 22.6-16.8Q22.45-20.1 22.45-23.15L22.45-23.15Q22.45-27.1 22.6-29.4L22.6-29.4 17.5-6.1 12.45-6.1 7-29.4Q7.2-26.85 7.2-21.55L7.2-21.55Q7.2-18.35 7.15-16.75L7.15-16.75 6.45 0 1.25 0 3.2-34.5 10.15-34.5 15.1-11.4 19.8-34.5 26.8-34.5ZM58.1-17.25Q58.1-9.05 54.72-4.2 51.35 0.65 45 0.65L45 0.65Q38.65 0.65 35.27-4.13 31.9-8.9 31.9-17.2L31.9-17.2Q31.9-25.4 35.27-30.3 38.65-35.2 45-35.2L45-35.2Q51.35-35.2 54.72-30.38 58.1-25.55 58.1-17.25L58.1-17.25ZM52.15-17.25Q52.15-24.05 50.45-27.35 48.75-30.65 45-30.65L45-30.65Q41.25-30.65 39.55-27.35 37.85-24.05 37.85-17.2L37.85-17.2Q37.85-10.45 39.57-7.15 41.3-3.85 45-3.85L45-3.85Q48.75-3.85 50.45-7.15 52.15-10.45 52.15-17.25L52.15-17.25ZM70.15-4.2Q70.15-6.2 71.55-7.6 72.95-9 74.95-9L74.95-9Q77-9 78.4-7.6 79.8-6.2 79.8-4.2L79.8-4.2Q79.8-2.15 78.4-0.75 77 0.65 74.95 0.65L74.95 0.65Q72.95 0.65 71.55-0.75 70.15-2.15 70.15-4.2L70.15-4.2ZM111.04-8.3L98.74-8.3 96.34 0 90.39 0 101.39-34.5 108.59-34.5 119.59 0 113.44 0 111.04-8.3ZM99.94-12.8L109.84-12.8 104.89-30 99.94-12.8ZM148.04-17.45Q148.04-7.65 143.49-3.83 138.94 0 131.99 0L131.99 0 123.54 0 123.54-34.5 131.44-34.5Q138.94-34.5 143.49-30.88 148.04-27.25 148.04-17.45L148.04-17.45ZM141.94-17.45Q141.94-24.85 139.37-27.45 136.79-30.05 132.54-30.05L132.54-30.05 129.34-30.05 129.34-4.4 132.59-4.4Q141.94-4.4 141.94-17.45L141.94-17.45ZM161.44-30.1L161.44-19.7 173.94-19.7 173.94-15.35 161.44-15.35 161.44-4.4 176.69-4.4 176.69 0 155.64 0 155.64-34.5 176.39-34.5 175.74-30.1 161.44-30.1ZM185.99 0L185.99-34.5 191.74-34.5 191.74-4.85 207.24-4.85 206.59 0 185.99 0Z" opacity="1" transform="matrix(1,0,0,1,0,0)" fill="#c10000" class="wordmark-text-0" data-fill-palette-color="primary" id="text-0"></path></svg></g></svg></g></svg></g></svg></g></svg></g></svg></g></svg></g><defs></defs></svg><rect width="395.52" height="68.832" fill="none" stroke="none" visibility="hidden"></rect></g></svg></g></svg>